HIERARCHY
ROOT Root
{
  OFFSET 0.0 0.0 0.0
  CHANNELS 6 Xposition Yposition Zposition Zrotation Yrotation Xrotation
  JOINT Hips
  {
    OFFSET 0.0 100.0 0.0
    CHANNELS 6 Xposition Yposition Zposition Zrotation Yrotation Xrotation
    JOINT Spine1
    {
      OFFSET 5.003913 -0.037094 -0.013727
      CHANNELS 3 Zrotation Yrotation Xrotation
      JOINT Spine2
      {
        OFFSET 7.125363 -1e-06 0.0
        CHANNELS 3 Zrotation Yrotation Xrotation
        JOINT Chest
        {
          OFFSET 7.594027 1e-06 0.0
          CHANNELS 3 Zrotation Yrotation Xrotation
          JOINT Neck1
          {
            OFFSET 26.313086 -0.460272 -0.181672
            CHANNELS 3 Zrotation Yrotation Xrotation
            JOINT Neck2
            {
              OFFSET 8.045911 0.0 0.0
              CHANNELS 3 Zrotation Yrotation Xrotation
              JOINT Head
              {
                OFFSET 6.432774 0.0 0.0
                CHANNELS 3 Zrotation Yrotation Xrotation
                JOINT HeadEnd
                {
                  OFFSET 16.169773 0.06451 0.00362
                  CHANNELS 3 Zrotation Yrotation Xrotation
                }
                JOINT Jaw
                {
                  OFFSET 0.108741 3.12938 0.002639
                  CHANNELS 3 Zrotation Yrotation Xrotation
                }
                JOINT LeftEye
                {
                  OFFSET 4.45173 8.166359 3.206392
                  CHANNELS 3 Zrotation Yrotation Xrotation
                }
                JOINT RightEye
                {
                  OFFSET 4.436895 8.135758 -3.222429
                  CHANNELS 3 Zrotation Yrotation Xrotation
                }
              }
            }
          }
          JOINT LeftShoulder
          {
            OFFSET 23.218927 5.195579 1.621656
            CHANNELS 3 Zrotation Yrotation Xrotation
            JOINT LeftArm
            {
              OFFSET 15.902118 2e-06 -2e-06
              CHANNELS 3 Zrotation Yrotation Xrotation
              JOINT LeftForeArm
              {
                OFFSET 28.739307 0.0 -1e-06
                CHANNELS 3 Zrotation Yrotation Xrotation
                JOINT LeftHand
                {
                  OFFSET 27.093981 -4e-06 0.0
                  CHANNELS 3 Zrotation Yrotation Xrotation
                  JOINT LeftHandThumb1
                  {
                    OFFSET 2.276781 3.380274 0.83384
                    CHANNELS 3 Zrotation Yrotation Xrotation
                    JOINT LeftHandThumb2
                    {
                      OFFSET 4.705309 -1e-06 -1e-06
                      CHANNELS 3 Zrotation Yrotation Xrotation
                      JOINT LeftHandThumb3
                      {
                        OFFSET 2.798515 0.0 3e-06
                        CHANNELS 3 Zrotation Yrotation Xrotation
                        JOINT LeftHandThumbEnd
                        {
                          OFFSET 3.180793 4e-06 -4e-06
                          CHANNELS 3 Zrotation Yrotation Xrotation
                        }
                      }
                    }
                  }
                  JOINT LeftHandIndex1
                  {
                    OFFSET 3.247786 2.352677 0.137192
                    CHANNELS 3 Zrotation Yrotation Xrotation
                    JOINT LeftHandIndex2
                    {
                      OFFSET 6.367095 1e-06 0.0
                      CHANNELS 3 Zrotation Yrotation Xrotation
                      JOINT LeftHandIndex3
                      {
                        OFFSET 3.662364 0.0 0.0
                        CHANNELS 3 Zrotation Yrotation Xrotation
                        JOINT LeftHandIndex4
                        {
                          OFFSET 2.329242 4e-06 -4e-06
                          CHANNELS 3 Zrotation Yrotation Xrotation
                          JOINT LeftHandIndexEnd
                          {
                            OFFSET 2.767823 1e-06 0.0
                            CHANNELS 3 Zrotation Yrotation Xrotation
                          }
                        }
                      }
                    }
                  }
                  JOINT LeftHandMiddle1
                  {
                    OFFSET 3.163612 0.945023 -0.406112
                    CHANNELS 3 Zrotation Yrotation Xrotation
                    JOINT LeftHandMiddle2
                    {
                      OFFSET 6.276789 3e-06 0.0
                      CHANNELS 3 Zrotation Yrotation Xrotation
                      JOINT LeftHandMiddle3
                      {
                        OFFSET 4.35652 -1e-06 4e-06
                        CHANNELS 3 Zrotation Yrotation Xrotation
                        JOINT LeftHandMiddle4
                        {
                          OFFSET 2.996877 0.0 8e-06
                          CHANNELS 3 Zrotation Yrotation Xrotation
                          JOINT LeftHandMiddleEnd
                          {
                            OFFSET 2.323256 3e-06 -4e-06
                            CHANNELS 3 Zrotation Yrotation Xrotation
                          }
                        }
                      }
                    }
                  }
                  JOINT LeftHandRing1
                  {
                    OFFSET 2.882606 -0.309162 0.107445
                    CHANNELS 3 Zrotation Yrotation Xrotation
                    JOINT LeftHandRing2
                    {
                      OFFSET 6.033198 0.0 4e-06
                      CHANNELS 3 Zrotation Yrotation Xrotation
                      JOINT LeftHandRing3
                      {
                        OFFSET 4.350578 3e-06 0.0
                        CHANNELS 3 Zrotation Yrotation Xrotation
                        JOINT LeftHandRing4
                        {
                          OFFSET 2.651321 2e-06 -7e-06
                          CHANNELS 3 Zrotation Yrotation Xrotation
                          JOINT LeftHandRingEnd
                          {
                            OFFSET 1.937663 1e-06 -4e-06
                            CHANNELS 3 Zrotation Yrotation Xrotation
                          }
                        }
                      }
                    }
                  }
                  JOINT LeftHandPinky1
                  {
                    OFFSET 2.865315 -1.525436 0.575687
                    CHANNELS 3 Zrotation Yrotation Xrotation
                    JOINT LeftHandPinky2
                    {
                      OFFSET 5.54936 1e-06 -8e-06
                      CHANNELS 3 Zrotation Yrotation Xrotation
                      JOINT LeftHandPinky3
                      {
                        OFFSET 3.070974 0.0 -4e-06
                        CHANNELS 3 Zrotation Yrotation Xrotation
                        JOINT LeftHandPinky4
                        {
                          OFFSET 1.549672 1e-06 0.0
                          CHANNELS 3 Zrotation Yrotation Xrotation
                          JOINT LeftHandPinkyEnd
                          {
                            OFFSET 1.952123 0.0 0.0
                            CHANNELS 3 Zrotation Yrotation Xrotation
                          }
                        }
                      }
                    }
                  }
                }
              }
            }
          }
          JOINT RightShoulder
          {
            OFFSET 23.161716 5.296122 -1.380114
            CHANNELS 3 Zrotation Yrotation Xrotation
            JOINT RightArm
            {
              OFFSET -16.027195 -2e-06 1.1e-05
              CHANNELS 3 Zrotation Yrotation Xrotation
              JOINT RightForeArm
              {
                OFFSET -28.736639 4e-06 2e-06
                CHANNELS 3 Zrotation Yrotation Xrotation
                JOINT RightHand
                {
                  OFFSET -27.133619 6e-06 0.0
                  CHANNELS 3 Zrotation Yrotation Xrotation
                  JOINT RightHandThumb1
                  {
                    OFFSET -2.274328 -3.351035 -0.83067
                    CHANNELS 3 Zrotation Yrotation Xrotation
                    JOINT RightHandThumb2
                    {
                      OFFSET -4.703594 -3e-06 2e-06
                      CHANNELS 3 Zrotation Yrotation Xrotation
                      JOINT RightHandThumb3
                      {
                        OFFSET -2.794935 -4e-06 -3e-06
                        CHANNELS 3 Zrotation Yrotation Xrotation
                        JOINT RightHandThumbEnd
                        {
                          OFFSET -3.183852 4e-06 1e-06
                          CHANNELS 3 Zrotation Yrotation Xrotation
                        }
                      }
                    }
                  }
                  JOINT RightHandIndex1
                  {
                    OFFSET -3.253496 -2.33755 -0.127667
                    CHANNELS 3 Zrotation Yrotation Xrotation
                    JOINT RightHandIndex2
                    {
                      OFFSET -6.344434 0.0 0.0
                      CHANNELS 3 Zrotation Yrotation Xrotation
                      JOINT RightHandIndex3
                      {
                        OFFSET -3.654871 0.0 -8e-06
                        CHANNELS 3 Zrotation Yrotation Xrotation
                        JOINT RightHandIndex4
                        {
                          OFFSET -2.327586 -1e-06 0.0
                          CHANNELS 3 Zrotation Yrotation Xrotation
                          JOINT RightHandIndexEnd
                          {
                            OFFSET -2.770001 3e-06 8e-06
                            CHANNELS 3 Zrotation Yrotation Xrotation
                          }
                        }
                      }
                    }
                  }
                  JOINT RightHandMiddle1
                  {
                    OFFSET -3.168223 -0.944764 0.411762
                    CHANNELS 3 Zrotation Yrotation Xrotation
                    JOINT RightHandMiddle2
                    {
                      OFFSET -6.266691 -1e-06 -4e-06
                      CHANNELS 3 Zrotation Yrotation Xrotation
                      JOINT RightHandMiddle3
                      {
                        OFFSET -4.348901 0.0 0.0
                        CHANNELS 3 Zrotation Yrotation Xrotation
                        JOINT RightHandMiddle4
                        {
                          OFFSET -3.00024 2e-06 -4e-06
                          CHANNELS 3 Zrotation Yrotation Xrotation
                          JOINT RightHandMiddleEnd
                          {
                            OFFSET -2.321477 -4e-06 -4e-06
                            CHANNELS 3 Zrotation Yrotation Xrotation
                          }
                        }
                      }
                    }
                  }
                  JOINT RightHandRing1
                  {
                    OFFSET -2.885654 0.293261 -0.119232
                    CHANNELS 3 Zrotation Yrotation Xrotation
                    JOINT RightHandRing2
                    {
                      OFFSET -6.032835 -1e-06 -4e-06
                      CHANNELS 3 Zrotation Yrotation Xrotation
                      JOINT RightHandRing3
                      {
                        OFFSET -4.33881 0.0 -4e-06
                        CHANNELS 3 Zrotation Yrotation Xrotation
                        JOINT RightHandRing4
                        {
                          OFFSET -2.654903 -4e-06 -4e-06
                          CHANNELS 3 Zrotation Yrotation Xrotation
                          JOINT RightHandRingEnd
                          {
                            OFFSET -1.935122 0.0 4e-06
                            CHANNELS 3 Zrotation Yrotation Xrotation
                          }
                        }
                      }
                    }
                  }
                  JOINT RightHandPinky1
                  {
                    OFFSET -2.866241 1.503904 -0.60527
                    CHANNELS 3 Zrotation Yrotation Xrotation
                    JOINT RightHandPinky2
                    {
                      OFFSET -5.553177 -2e-06 0.0
                      CHANNELS 3 Zrotation Yrotation Xrotation
                      JOINT RightHandPinky3
                      {
                        OFFSET -3.062664 -1e-06 -4e-06
                        CHANNELS 3 Zrotation Yrotation Xrotation
                        JOINT RightHandPinky4
                        {
                          OFFSET -1.546529 2e-06 4e-06
                          CHANNELS 3 Zrotation Yrotation Xrotation
                          JOINT RightHandPinkyEnd
                          {
                            OFFSET -1.952341 0.0 -4e-06
                            CHANNELS 3 Zrotation Yrotation Xrotation
                          }
                        }
                      }
                    }
                  }
                }
              }
            }
          }
        }
      }
    }
    JOINT LeftLeg
    {
      OFFSET -8.443107 2.567604 10.043214
      CHANNELS 3 Zrotation Yrotation Xrotation
      JOINT LeftShin
      {
        OFFSET 43.229198 1e-06 -1e-06
        CHANNELS 3 Zrotation Yrotation Xrotation
        JOINT LeftFoot
        {
          OFFSET 42.298611 1e-06 1e-06
          CHANNELS 3 Zrotation Yrotation Xrotation
          JOINT LeftToeBase
          {
            OFFSET 14.165858 1e-06 0.0
            CHANNELS 3 Zrotation Yrotation Xrotation
            JOINT LeftToeEnd
            {
              OFFSET 6.7141 -0.234461 0.0
              CHANNELS 3 Zrotation Yrotation Xrotation
            }
          }
        }
      }
    }
    JOINT RightLeg
    {
      OFFSET -8.303923 2.592729 -10.047278
      CHANNELS 3 Zrotation Yrotation Xrotation
      JOINT RightShin
      {
        OFFSET -43.369682 0.0 1e-06
        CHANNELS 3 Zrotation Yrotation Xrotation
        JOINT RightFoot
        {
          OFFSET -42.260784 4e-06 2e-06
          CHANNELS 3 Zrotation Yrotation Xrotation
          JOINT RightToeBase
          {
            OFFSET -14.222245 -2e-06 -1e-06
            CHANNELS 3 Zrotation Yrotation Xrotation
            JOINT RightToeEnd
            {
              OFFSET -6.660062 0.232574 -2e-06
              CHANNELS 3 Zrotation Yrotation Xrotation
            }
          }
        }
      }
    }
  }
}
MOTION
Frames: 4
Frame Time: 0.03333333333333333
0.0 0.0 0.0 0.0 -0.0 0.0 0.109774 99.015373 -0.270654 89.597397 4.138228 90.606125 -2.351438 0.307307 0.096 -11.785872 -0.519506 0.078644 16.698181 -0.65094 -2.794019 24.981165 -2.94195 2.542472 -2.541089 -0.456688 1.447111 -34.629669 1.629289 -0.499581 6e-06 0.0 -0.0 0.092388 0.005463 0.011307 0.135069 -0.042737 -0.003202 0.14121 0.048341 0.035631 -146.562683 -76.275543 162.597137 32.251896 -19.73946 -49.21463 45.165932 1.527493 -0.002054 -2.247133 9.551916 -83.545815 17.636627 -26.322733 52.41119 -19.466654 -14.395594 29.410381 -0.0 -8.774819 -3e-06 16.312977 -17.096775 6.024633 -0.609775 -1.795653 -3.889328 -4.807088 -11.046813 -2.93785 4e-06 -20.976019 0.0 -5.019972 -25.03356 -4.031881 6e-06 1e-06 -1e-06 -10.634531 -5.686968 -3.565585 10.573272 -17.922951 -3.1139 2e-06 -13.821209 1e-06 -0.501778 -31.181505 -4.027016 -11.412704 -59.532024 7.143998 -13.982712 -7.150197 -2.875043 13.772726 -8.40149 -3.218237 0.347733 -34.211552 0.771656 -0.96303 -17.73337 2.621022 1e-06 -1e-06 -1e-06 -17.346415 -20.095219 -4.201784 21.757555 -1.638376 3.866428 3e-06 -6.338822 0.0 -1.69759 -22.591747 -6.194008 -0.0 -3e-06 -3e-06 33.875732 -82.188545 162.86348 31.030312 -28.550238 -65.713882 54.101036 -1.593917 0.17973 -4.167414 16.66493 -77.797256 22.18211 -20.375893 49.933319 -16.701815 -16.743528 28.476532 -4e-06 -12.690601 -0.0 16.148335 -18.148512 3.589685 -0.105919 -1.513856 -4.275881 -5.03904 -5.612872 -2.953558 1e-06 -11.02052 -1e-06 -6.111295 -15.89533 -3.840472 -1e-06 1e-06 0.0 -10.283371 -5.680288 -4.341839 11.028295 -11.302409 -2.372633 -1.384267 -14.238579 -6.320121 -0.62544 -26.924189 -3.827601 -5.098615 -50.308342 -2.580807 -13.708526 -7.363475 -3.72094 18.14115 -14.052739 -3.242675 6e-06 -18.78727 -2e-06 -0.429712 -8.456043 2.555502 0.0 -2e-06 0.0 -15.923536 -20.094482 -5.473583 30.41921 -7.190826 1.735924 2e-06 -8.162926 -1e-06 -1.861899 -22.861471 -6.167944 0.0 -4e-06 -0.0 174.106659 -5.613653 -10.081713 23.172873 -0.009369 0.080725 -81.653694 2.869359 -3.520879 -6.890856 1.461692 2.0864 -0.999999 0.0 0.0 -4.491307 -3.782509 -7.537762 21.97908 -0.007671 0.017466 -81.641068 -3.957886 -6.751989 -7.256661 0.738008 1.637231 -1.000003 0.0 -0.0 
0.0 0.0 0.0 0.0 -0.0 0.0 0.139687 99.007797 -0.322876 89.622398 4.106308 90.581841 -2.317608 0.290354 0.096901 -11.779031 -0.501993 0.099307 16.666531 -0.652714 -2.805502 24.993391 -2.939178 2.53054 -2.533602 -0.470211 1.410992 -34.531384 1.641269 -0.554658 5e-06 -0.0 -0.0 0.090173 0.010609 0.028526 0.144975 -0.040848 0.012933 0.150735 0.056866 0.053937 -146.834915 -76.252846 162.816589 32.256523 -19.636255 -49.168415 45.398987 1.548276 0.05588 -2.279945 9.458055 -83.453796 17.636633 -26.322729 52.411205 -19.466665 -14.395602 29.410398 -1e-06 -8.774823 -3e-06 16.299366 -17.100706 6.002059 -0.609775 -1.795653 -3.889329 -4.807091 -11.046813 -2.937851 5e-06 -20.976019 -2e-06 -5.019969 -25.033558 -4.031884 6e-06 -1e-06 -1e-06 -10.634535 -5.68697 -3.565589 10.573277 -17.922951 -3.113902 4e-06 -13.821209 -2e-06 -0.501776 -31.181505 -4.027015 -11.374715 -59.477444 7.098301 -13.982713 -7.150198 -2.875044 13.772731 -8.40149 -3.218242 0.347736 -34.211555 0.771651 -0.963031 -17.73337 2.621017 1e-06 -1e-06 -1e-06 -17.346418 -20.095219 -4.201784 21.757561 -1.638374 3.866425 2e-06 -6.338822 -1e-06 -1.697588 -22.591747 -6.194009 -0.0 -2e-06 -2e-06 33.831627 -82.33551 162.887207 31.232557 -28.396168 -66.01384 54.758976 -1.558958 0.294542 -4.379872 16.89271 -77.98867 22.182117 -20.375895 49.933323 -16.701817 -16.74353 28.476536 -2e-06 -12.690603 -1e-06 16.154799 -18.10107 3.623499 -0.10592 -1.513857 -4.275881 -5.039041 -5.612875 -2.953558 3e-06 -11.020526 -1e-06 -6.111297 -15.895334 -3.840472 -2e-06 0.0 -1e-06 -10.283374 -5.68029 -4.341839 11.028296 -11.302406 -2.372632 -1.38427 -14.238582 -6.320122 -0.625439 -26.924192 -3.827602 -5.11921 -50.328449 -2.520009 -13.708527 -7.363478 -3.72094 18.141153 -14.05274 -3.242676 6e-06 -18.787271 -2e-06 -0.429711 -8.456045 2.555502 0.0 -2e-06 1e-06 -15.923538 -20.09449 -5.473583 30.419218 -7.190825 1.735925 3e-06 -8.162928 -1e-06 -1.861903 -22.861479 -6.167943 1e-06 -4e-06 -1e-06 174.02742 -5.583136 -10.102539 23.223017 -0.012484 0.087908 -81.650017 2.861196 -3.507351 -6.891662 1.461102 2.084658 -0.999999 -0.0 -0.0 -4.604521 -3.832787 -7.506031 22.082207 -0.004341 0.018524 -81.658707 -3.960362 -6.767321 -7.263349 0.73625 1.632278 -1.000002 -0.0 -0.0 
0.0 0.0 0.0 0.0 -0.0 0.0 0.164725 99.004036 -0.371053 89.651108 4.052389 90.553215 -2.288503 0.271096 0.079801 -11.783717 -0.495466 0.118707 16.620749 -0.657688 -2.803583 24.930147 -2.917523 2.517106 -2.529101 -0.4923 1.387759 -34.408081 1.640308 -0.606842 7e-06 -0.0 -0.0 0.089547 0.014677 0.043871 0.15237 -0.036418 0.027165 0.156782 0.060789 0.070098 -147.071381 -76.267113 163.002502 32.286263 -19.546652 -49.129738 45.623631 1.621857 0.088845 -2.299936 9.421607 -83.285706 17.636623 -26.322721 52.411182 -19.466665 -14.395597 29.410389 -1e-06 -8.774822 -2e-06 16.25782 -17.134342 6.014713 -0.609775 -1.795655 -3.889327 -4.807086 -11.046807 -2.93785 7e-06 -20.976015 -1e-06 -5.019969 -25.033552 -4.031883 7e-06 -0.0 -1e-06 -10.634534 -5.686969 -3.565588 10.573277 -17.922947 -3.113901 5e-06 -13.821205 -1e-06 -0.501772 -31.181498 -4.027019 -11.358302 -59.391842 7.085254 -13.982714 -7.150196 -2.875041 13.772732 -8.401489 -3.218241 0.347741 -34.211544 0.771652 -0.963026 -17.733362 2.621017 1e-06 -1e-06 -1e-06 -17.346413 -20.095211 -4.20178 21.757555 -1.638375 3.866423 1e-06 -6.338822 1e-06 -1.697586 -22.591738 -6.194006 0.0 -4e-06 -2e-06 33.68446 -82.489212 162.974213 31.459312 -28.262184 -66.291878 55.464336 -1.487563 0.393825 -4.5959 17.151541 -78.050652 22.18211 -20.375895 49.933327 -16.701815 -16.743528 28.476536 -2e-06 -12.690601 -2e-06 16.149883 -18.07835 3.63504 -0.105918 -1.513857 -4.275882 -5.039038 -5.61287 -2.953557 3e-06 -11.02052 -2e-06 -6.111296 -15.895328 -3.840475 -0.0 -2e-06 1e-06 -10.283371 -5.680288 -4.341838 11.028294 -11.302406 -2.372636 -1.38427 -14.238579 -6.320122 -0.625436 -26.924191 -3.827605 -5.105977 -50.276245 -2.49505 -13.708524 -7.363476 -3.720939 18.14115 -14.052739 -3.242677 7e-06 -18.78727 -3e-06 -0.429713 -8.456041 2.555501 -1e-06 -2e-06 2e-06 -15.923532 -20.094482 -5.473586 30.41921 -7.190822 1.735923 4e-06 -8.162925 -0.0 -1.861902 -22.861469 -6.167942 2e-06 -4e-06 0.0 173.937775 -5.55163 -10.126234 23.24872 -0.014854 0.090125 -81.63205 2.848592 -3.508407 -6.895305 1.451067 2.080131 -0.999999 -1e-06 -0.0 -4.732058 -3.891305 -7.522053 22.173178 0.000146 0.010788 -81.672813 -3.918431 -6.760957 -7.25627 0.73155 1.627196 -1.000002 -0.0 0.0 
0.0 0.0 0.0 0.0 -0.0 0.0 0.185153 99.002197 -0.411031 89.68663 3.989094 90.510353 -2.26592 0.245495 0.053994 -11.782825 -0.496707 0.130753 16.555687 -0.675328 -2.794262 24.788101 -2.891146 2.499611 -2.539497 -0.50082 1.387194 -34.25032 1.646347 -0.63441 6e-06 -0.0 -0.0 0.087229 0.016477 0.051988 0.150215 -0.030133 0.034525 0.154696 0.058249 0.078334 -147.287781 -76.293335 163.190063 32.310341 -19.461016 -49.084812 45.851894 1.737689 0.097601 -2.27548 9.479708 -83.169044 17.636631 -26.322733 52.411205 -19.466661 -14.395592 29.410395 -1e-06 -8.774819 -3e-06 16.211014 -17.186636 6.03644 -0.609775 -1.795653 -3.889329 -4.807091 -11.046813 -2.937849 5e-06 -20.976019 0.0 -5.019968 -25.03356 -4.031882 6e-06 1e-06 -0.0 -10.634535 -5.686972 -3.565587 10.573277 -17.922951 -3.113903 3e-06 -13.821209 -1e-06 -0.501774 -31.181511 -4.027018 -11.355536 -59.321827 7.08249 -13.982714 -7.150198 -2.875041 13.772728 -8.401491 -3.21824 0.347735 -34.211555 0.771657 -0.963028 -17.73337 2.62102 1e-06 -0.0 -1e-06 -17.346416 -20.095217 -4.201784 21.757557 -1.638376 3.866429 2e-06 -6.338824 -1e-06 -1.697589 -22.591745 -6.194007 -0.0 -4e-06 -3e-06 33.245934 -82.650948 163.306229 31.691879 -28.168806 -66.559456 56.209267 -1.414149 0.499803 -4.775101 17.415237 -78.020981 22.182121 -20.375891 49.933319 -16.701813 -16.743528 28.47653 -3e-06 -12.6906 -4e-06 16.124395 -18.070841 3.63819 -0.105919 -1.513856 -4.275881 -5.039042 -5.612872 -2.953557 4e-06 -11.020523 -2e-06 -6.111298 -15.89533 -3.840472 1e-06 -2e-06 -0.0 -10.283371 -5.680288 -4.341839 11.028293 -11.302402 -2.372632 -1.38427 -14.238579 -6.320121 -0.625438 -26.924183 -3.827604 -5.0689 -50.180721 -2.497811 -13.708526 -7.363477 -3.72094 18.141146 -14.052739 -3.242672 6e-06 -18.787266 -1e-06 -0.42971 -8.456043 2.555501 -1e-06 -0.0 -1e-06 -15.923536 -20.094484 -5.473588 30.41921 -7.190824 1.735931 3e-06 -8.162925 -1e-06 -1.8619 -22.861467 -6.167942 0.0 -2e-06 -1e-06 173.857117 -5.517621 -10.162149 23.252882 -0.01311 0.083492 -81.608559 2.84608 -3.541403 -6.907216 1.43244 2.075917 -1.0 -1e-06 0.0 -4.867734 -3.949493 -7.534451 22.263374 0.004207 0.000648 -81.691872 -3.863869 -6.75051 -7.235775 0.725722 1.623138 -1.000001 0.0 0.0 
